<svg width="700" height="700" viewBox="0 0 700 700" fill="none" xmlns="http://www.w3.org/2000/svg">
<path d="M538.96 98.87C587.34 132.06 599.5 194.05 584.82 248.26C577.15 276.57 561.75 296.47 561.81 327.08C561.84 345.68 565.16 363.74 564.37 382.61C562.47 427.75 531.91 473.05 496.35 499.3C478.83 512.24 456.88 520.9 440.86 535.18C437.13 538.51 433.18 544.06 429.55 547.36C387.2 585.86 339.16 604.71 281.53 591.46C241.33 582.22 219.23 558.4 180.87 591.24C165.99 603.98 145.76 634.14 123.73 614.74C103.29 596.74 126.48 574.8 138.3 560.15C139.34 558.86 142.62 556.66 143.9 555.03C178.02 511.32 139.7 482.05 125.69 440.74C108.2 389.16 118.53 325.74 154.88 284.67C176.04 260.76 197.56 251.78 212.55 221.49C227.54 191.2 236.07 165.46 266.85 145.98C294.73 128.34 316.09 128.12 347.03 123.3C371.07 119.55 387.32 104.9 408.89 95.29C453.43 75.44 497.22 70.23 538.97 98.87H538.96Z" fill="white"/>
</svg>
